<?xml version="1.0" encoding="utf-8"?>
<!-- Generator: Adobe Illustrator 25.4.1, SVG Export Plug-In . SVG Version: 6.00 Build 0)  -->
<svg version="1.1" id="b0b79840-c431-4b73-bd25-5ee21d1fe90a"
	 xmlns="http://www.w3.org/2000/svg" xmlns:xlink="http://www.w3.org/1999/xlink" x="0px" y="0px" viewBox="0 0 577.5 527"
	 style="enable-background:new 0 0 577.5 527;" xml:space="preserve">
<style type="text/css">
	.st0{fill:#FF00FF;}
	.st1{fill:#FFFFFF;}
	.st2{enable-background:new    ;}
</style>
<g>
	<path d="M577.5,515H16V0h561.5V515z M18,513h557.5V2H18V513z"/>
</g>
<g>
	<rect x="1" y="16.8" class="st0" width="558.5" height="508.6"/>
</g>
<g>
	<path class="st1" d="M482.3,526c25.2-12.5,39.2-40.5,44.9-68.1c9.9-47.2,0.6-97.8-23.9-139.4s-63.7-73.9-108.5-91.7
		c21.3-24,22.1-62.2,5.8-89.8S353.4,92.4,321.7,88c-39.9-5.6-82,8-111.2,35.8s-44.8,69.2-41.1,109.3c-10.1,2.3-20,6.8-29.4,11.2
		c-23.6,11.1-44.7,26.8-62.3,46l-1.9,2.1c-9.7,10.9-18.2,23-23.8,36.5c-3.6,9-6.3,18.4-8,27.9c-8.4,41.7-7,86.4,10.6,125.1
		c5,11,11.5,21.7,20.7,29.3c-4.7,4.2-8.3,9.5-11.5,14.9L482.3,526z"/>
</g>
<g>
	<path d="M482.7,527l-0.9-1.8c12.6-6.2,35.1-23.3,44.4-67.4c9.7-46.1,1-96.7-23.8-138.7c-24-40.7-62.4-73.1-108-91.3l-1.3-0.5
		l0.9-1.1c20.2-22.7,22.6-60,5.7-88.6c-15.2-25.7-44.5-43.9-78.2-48.7c-39.3-5.5-81.6,8.1-110.3,35.5c-28.8,27.4-44.4,69-40.8,108.5
		l0.1,0.9l-0.9,0.2c-10.2,2.3-20.4,7-29.2,11.1c-23.6,11.1-44.4,26.5-62,45.8l-0.4,0.5c-0.5,0.5-1,1.1-1.5,1.6
		c-10.8,12.2-18.6,24-23.7,36.2c-3.6,8.9-6.3,18.3-8,27.7c-6.5,32-9.9,79.5,10.5,124.5c5.9,13,12.6,22.5,20.5,29l-1.3,1.5
		c-8.1-6.7-15-16.4-21-29.7C33,436.9,36.4,388.9,42.9,356.6c1.8-9.6,4.5-19,8.1-28.1c5.2-12.4,13-24.5,24-36.8
		c0.5-0.6,1-1.1,1.5-1.7l0.4-0.5c17.8-19.4,38.8-35,62.6-46.2c8.6-4.1,18.6-8.6,28.7-11.1c-3.3-39.8,12.5-81.6,41.5-109.3
		c29.1-27.8,72-41.6,112-36c34.4,4.8,64.1,23.4,79.7,49.6c17.1,28.9,14.9,66.4-5,89.9c45.5,18.5,83.7,50.9,107.7,91.6
		c25.1,42.4,33.8,93.5,24,140.1C518.8,503.1,495.7,520.6,482.7,527z"/>
</g>
<g>
	<path d="M64.8,526.6l-1.7-1.1c13.1-20.6,37.7-45.7,55.2-59.9c8.9-7.2,18.2-14.2,27.2-20.9c20.9-15.6,42.5-31.8,59.9-51.7
		c14.1-16.2,25.4-34.5,33.3-54.5c12-30.3,16.2-64,19.8-93.9c-14.7,1.1-28.9-5.8-35.7-17.3c-7.6-12.9-4-31,7.7-38.6
		c6.1-4,14.5-4.7,22-1.8c6.9,2.7,11.8,7.9,13.4,14.2l-1.9,0.5c-1.5-5.7-5.9-10.4-12.2-12.8c-6.9-2.7-14.6-2.1-20.1,1.6
		c-10.8,7.1-14.1,23.9-7,36c6.6,11.2,20.7,17.7,35,16.2l1.2-0.1l-0.1,1.2c-3.7,30.3-7.8,64.7-20.1,95.6c-8,20.2-19.4,38.7-33.7,55
		c-17.5,20-39.2,36.3-60.2,51.9c-9,6.7-18.3,13.7-27.2,20.9C102.1,481.3,77.7,506.2,64.8,526.6z"/>
</g>
<g>
	<path d="M485.8,525.4l-2-0.1c0.9-21.6-2.8-43-10.9-61.9c-8.6-20.3-21.9-36.8-38.4-47.6c-13.3-8.7-28.7-13.9-43.6-19
		c-8.8-3-17.9-6.1-26.5-9.8c-9.1-4-21.9-10.6-28.7-22.4c-4.2-7.3-5.6-15.6-6.9-24.3c-0.9-6.3-1.7-12.6-2.5-19c0-0.4-0.2-1.5-0.4-3.1
		c-2-15.7-2-15.7-1-16c2.9-0.9,5.8-2,8.6-3.4c14.9-6.9,25.5-15.7,32.2-27c2.5-4.3,4.5-8.8,5.7-13.6c2.2-8.6,2.3-17.4,1.8-28.1
		c-1.5-28.7-6.5-57.3-14.7-84.8c-25.6,27.1-57.9,46.9-93.7,57.5l-0.6-1.9c36-10.6,68.5-30.7,94-58.2l1.2-1.3l0.5,1.7
		c8.6,28.2,13.7,57.5,15.3,87c0.6,10.8,0.5,19.9-1.8,28.7c-1.3,5-3.3,9.7-6,14.2c-6.9,11.6-17.7,20.7-33,27.8
		c-2.6,1.3-5.4,2.4-8.1,3.2c0.2,2.4,1.2,10.4,1.7,14c0.2,1.6,0.3,2.7,0.4,3.1c0.7,6.3,1.6,12.6,2.4,18.9c1.2,8.5,2.6,16.6,6.6,23.6
		c5,8.6,13.8,15.5,27.8,21.6c8.5,3.7,17.6,6.8,26.3,9.8c15,5.1,30.5,10.4,44,19.2c16.8,11,30.4,27.8,39.2,48.5
		C482.9,481.8,486.7,503.5,485.8,525.4z"/>
</g>
<g>
	<path class="st1" d="M350.5,192l19.8,16.5c2.5,2.1,5.1,4.3,6.8,7.1c3,5.1,2.6,11.9-0.3,17.1s-8,8.9-13.6,11.1"/>
	<path d="M363.6,244.6l-0.7-1.9c5.9-2.3,10.5-6,13-10.6c2.9-5.2,3-11.5,0.3-16.1c-1.6-2.7-4.2-4.8-6.6-6.8l-19.8-16.5l1.3-1.5
		l19.8,16.5c2.5,2,5.2,4.3,7,7.4c3.1,5.2,3,12.3-0.3,18.1C374.9,238.1,369.9,242.2,363.6,244.6z"/>
</g>
<g>
	<path d="M360.4,263.5c-0.2,0-0.4,0-0.6,0c-10.7-0.1-20.9-4.1-28.8-11.4l1.4-1.5c7.5,6.9,17.3,10.8,27.5,10.9c1,0.1,1.9-0.1,2.8-0.3
		l0.6,1.9C362.4,263.3,361.4,263.5,360.4,263.5z"/>
</g>
<g>
	<path d="M320.5,304.7c-2,0-4.2-0.2-6.5-0.7c-6.5-1.4-12.4-4.9-16.7-10l1.5-1.3c4,4.7,9.5,8,15.6,9.3c6.3,1.3,11.2,0.8,16.5-1.9
		l0.9,1.8C328.1,303.8,324.5,304.7,320.5,304.7z"/>
</g>
<g>
	<path d="M235.4,228.3c-1.6-5.2,2.2-10.6,6.8-12.6c3.1-1.4,6.4-1.7,9.8-1.5c-9.8-5.2-20.3-8.9-31.3-11l0.4-2
		c12.7,2.4,24.9,6.9,36.1,13.5l-0.6,1.9c-4.6-0.6-9.4-0.9-13.5,0.9c-3.7,1.7-7,6-5.7,10.2L235.4,228.3z"/>
</g>
<g>
	<rect x="355.8" y="234.2" transform="matrix(0.804 -0.5946 0.5946 0.804 -68.9312 261.2108)" width="11.9" height="2"/>
</g>
<g>
	<ellipse transform="matrix(0.1595 -0.9872 0.9872 0.1595 71.3404 494.0133)" cx="325.8" cy="205.1" rx="5.1" ry="5.1"/>
</g>
<g>
	<path d="M336.5,183.7c-4-2.6-9.3-2.2-13.9-1.5l-0.3-2c5-0.8,10.7-1.2,15.3,1.8L336.5,183.7z"/>
</g>
<g>
	<path d="M362.1,184l-1.9-0.6c1.1-3.2,3.5-5.8,6.7-7l0.7,1.9C365,179.2,363,181.3,362.1,184z"/>
</g>
<g>
	<path d="M294,325.8c-4.3,0-8.7-0.3-13-1c-11.7-1.7-23.2-5-34.1-9.8l0.8-1.8c10.7,4.7,22,7.9,33.6,9.6c11.6,1.7,23.2,1.1,34.6-1.9
		c3.8-0.9,7.3-2.4,10.6-4.5l1.1,1.7c-3.5,2.2-7.2,3.8-11.2,4.7C309,324.9,301.5,325.8,294,325.8z"/>
</g>
<g>
	<path d="M330.8,217.1c-0.4,0-0.8,0-1.1-0.1c-2.6-0.2-5-1.4-6.8-3.3c-1-1.2-1.7-2.5-2.3-3.9c-0.6-1.2-1.1-2.5-1.4-3.9
		c-0.4-2.8,1.9-4.3,3.5-5.3l0.4-0.2c1.4-0.9,2.8-1.6,4.4-2.1c3.9-1.4,7.8-1,10.6,1c3.6,2.9,4.7,8,2.6,12.1
		C338.7,214.9,334.9,217.1,330.8,217.1z M332.1,199.3c-1.3,0-2.6,0.2-3.9,0.7l0,0c-1.4,0.5-2.7,1.1-3.9,1.9l-0.4,0.2
		c-1.7,1.1-2.9,2-2.7,3.3c0.3,1.2,0.7,2.4,1.3,3.5c0.5,1.3,1.1,2.4,2,3.4c1.4,1.5,3.3,2.5,5.4,2.6c3.7,0.4,7.3-1.5,9.1-4.7
		c1.6-3.2,0.8-7.2-2.1-9.5C335.6,199.8,333.9,199.3,332.1,199.3z"/>
</g>
<g>
	<circle cx="238.7" cy="249.7" r="14.5"/>
</g>
<g>
	<circle cx="237.9" cy="313.1" r="14.5"/>
</g>
<g>
	<rect x="225.8" y="269.2" transform="matrix(0.7071 -0.7071 0.7071 0.7071 -129.2505 250.621)" width="24.2" height="24.2"/>
</g>
<g>
	<path d="M560.5,526.4H0V15.8h560.5V526.4z M2,524.4h556.5V17.8H2V524.4z"/>
</g>
<g>
	<polygon points="294,390.9 258.5,335.9 228.7,363.8 227.3,362.4 258.9,332.8 293.8,386.8 320.1,332.4 332.6,350.3 330.9,351.5 
		320.4,336.3 	"/>
</g>
<g>
	<polygon points="264.3,439.6 246.6,378.1 201.2,400.5 200.3,398.7 247.9,375.3 265.5,436.5 321.4,399.1 321.4,371.8 353.4,379 
		352.9,381 323.4,374.3 323.4,400.1 	"/>
</g>
<g>
	<polygon points="227,475.8 227,412.5 179,421.1 178.6,419.1 229,410.1 229,473.2 359.9,437.4 346,391.5 381.5,391.5 381.5,393.5 
		348.7,393.5 362.4,438.7 361.4,439 	"/>
</g>
<g>
	<path d="M199.8,506.6l-2.2-67.5c-18.8,1.8-46.5,4.5-48.3,5.2c0,0,0.1,0,0.2-0.1l-1.2-1.6c1.2-0.9,27.9-3.5,50.2-5.6l1.1-0.1
		l2.2,67.3l219.7-36.6l-44.2-56.8h53v2h-48.9l43.8,56.2l-1.7,0.3L199.8,506.6z"/>
</g>
<g>
	<polygon points="194,525.7 171.7,470.6 118.9,467.4 119,465.4 173.1,468.7 195.8,525 	"/>
</g>
<g>
	<polygon points="101.8,526.2 100.9,524.5 142.6,502.2 98.1,485.9 98.8,484 147.5,501.8 	"/>
</g>
<g>
	<path d="M484.3,502.7l-64.8-69.8l1.7-0.4c29.4-6.2,29.6-6,30.1-5.5l-0.7,0.7l-0.1,1c-1.2,0-16.3,3.1-27.2,5.4l62.3,67.2
		L484.3,502.7z"/>
</g>
<g>
	<polygon points="224.3,526.4 224,524.4 449.8,494.8 480.5,524.6 479.1,526.1 449.1,496.9 	"/>
</g>
<g>
	<g class="st2">
		<g>
			<path d="M40.3,71.7c0-5.4,3.4-8.7,8.8-8.7c5.4,0,8.8,3.3,8.8,8.7c0,5.3-3.4,8.7-8.8,8.7C43.8,80.4,40.3,77.1,40.3,71.7z
				 M44.1,58.9l5-2.4h0.1l5,2.4v2.8l-5-2.4h-0.1l-5,2.4V58.9z M54.1,71.7c0-3.4-1.9-5.6-5-5.6c-3.1,0-5,2.1-5,5.6
				c0,3.4,1.9,5.5,5,5.5C52.2,77.2,54.1,75.1,54.1,71.7z"/>
		</g>
		<g>
			<path d="M61.2,82.8c1.6-0.1,2.2-1,2.2-2.6v-0.1h-1.6v-4.4h3.9v3.2c0,4-1.5,5.7-4.5,5.9V82.8z"/>
		</g>
		<g>
			<path d="M78,63.3h3.8l-0.1,4.4h0c0.7-2.9,2.8-4.7,5.9-4.7c3.3,0,5.4,1.7,5.8,4.4h0c0.6-2.7,2.7-4.4,5.9-4.4
				c3.7,0,5.9,2.4,5.9,6.4v10.7h-3.8v-9.9c0-2.5-1.2-4-3.5-4c-2.7,0-4.4,2-4.4,5.5v8.3h-3.8v-9.9c0-2.4-1.3-3.9-3.5-3.9
				c-2.6,0-4.3,2-4.3,5.6v8.2H78V63.3z"/>
		</g>
		<g>
			<path d="M108.4,75.3c0-2.6,1.8-4.6,6.3-4.6h6.2v-1.2c0-2.5-1.5-3.6-4.4-3.6c-2.6,0-4.1,1-4.1,2.9c0,0.1,0,0.4,0,0.6h-3.5
				c0-0.2-0.1-0.7-0.1-1c0-3.4,2.9-5.4,7.7-5.4c5.1,0,8.1,2.4,8.1,6.8v10.3h-3.8c0.1-0.8,0.2-2.4,0.2-3.7h0c-0.5,2.5-2.6,4-6.3,4
				C110.9,80.4,108.4,78.5,108.4,75.3z M114.2,56.2c1.3,0,2.1,0.6,2.8,1.3l0.5,0.5c0.6,0.6,0.9,0.9,1.5,0.9c0.7,0,1.3-0.7,1.5-2.7
				h2.4c-0.3,3.6-1.9,5-3.8,5c-1.3,0-2.1-0.5-2.8-1.3l-0.5-0.5c-0.6-0.6-0.9-0.9-1.5-0.9c-0.7,0-1.2,0.8-1.4,2.6h-2.4
				C110.7,57.6,112.3,56.2,114.2,56.2z M120.9,73.3V73H115c-2.2,0-3.1,0.7-3.1,2.1c0,1.5,1.4,2.4,3.7,2.4
				C118.9,77.5,120.9,75.9,120.9,73.3z"/>
		</g>
		<g>
			<path d="M128.4,63.3h3.8l-0.1,4.5h0c0.9-3,3.1-4.8,7-4.8c4.3,0,6.9,2.4,6.9,6.6v10.5h-3.8v-9.7c0-2.7-1.5-4.2-4.5-4.2
				c-3.3,0-5.5,2-5.5,5.7v8.1h-3.8V63.3z"/>
		</g>
		<g>
			<path d="M149.7,56.5h3.8v7.6c0,0.8-0.1,2.8-0.1,3.7h0c0.9-3.1,3.1-4.8,7-4.8c4.3,0,6.9,2.4,6.9,6.6v10.5h-3.8v-9.7
				c0-2.7-1.5-4.2-4.5-4.2c-3.4,0-5.5,2.1-5.5,5.9v8h-3.8V56.5z"/>
		</g>
		<g>
			<path d="M187,72.4h-12.6c0.2,3.2,2,5,4.9,5c2.5,0,4.1-1.1,4.3-3.1h3.4c-0.1,3.7-3.2,6-7.8,6c-5.3,0-8.7-3.3-8.7-8.6
				c0-5.5,3.3-8.8,8.7-8.8c4.8,0,7.8,2.8,7.8,8.1V72.4z M178.9,59.3l-5,2.4v-2.8l5-2.4h0.1l5,2.4v2.8L178.9,59.3L178.9,59.3z
				 M183.5,69.9c0-2.5-1.6-3.9-4.3-3.9c-2.6,0-4.3,1.4-4.7,4.2h9.1V69.9z"/>
		</g>
		<g>
			<path d="M190.1,75.7h3.9v4.4h-3.9V75.7z M190.2,61.1v-3.8h3.7v3.8l-1.1,11.3h-1.5L190.2,61.1z"/>
		</g>
	</g>
	<g class="st2">
		<g>
			<path d="M41,90.9h3.8v23.6H41V90.9z"/>
		</g>
		<g>
			<path d="M48.8,92h3.9v3.7h-3.9V92z M48.9,97.7h3.8v16.8h-3.8V97.7z"/>
		</g>
		<g>
			<path d="M60.5,111L60.5,111c0,1.2,0,2.7,0.1,3.6h-3.8V90.9h3.8v7.6c0,0.7,0,2.1-0.1,2.9h0c0.7-2.5,3-4,6.4-4
				c4.8,0,7.7,3.2,7.7,8.4c0,5.6-3,9-7.7,9C63.5,114.8,61.2,113.3,60.5,111z M70.8,105.9c0-3.3-1.8-5.3-4.8-5.3
				c-3.3,0-5.5,2.1-5.5,5.5v0.9c0,2.9,2.1,4.7,5.4,4.7C69,111.7,70.8,109.5,70.8,105.9z"/>
		</g>
		<g>
			<path d="M93.9,106.9H81.3c0.2,3.2,2,5,4.9,5c2.5,0,4.1-1.1,4.3-3.1h3.4c-0.1,3.7-3.2,6-7.8,6c-5.3,0-8.7-3.3-8.7-8.6
				c0-5.5,3.3-8.8,8.7-8.8c4.8,0,7.8,2.8,7.8,8.1V106.9z M90.5,104.3c0-2.5-1.6-3.9-4.3-3.9c-2.6,0-4.3,1.4-4.7,4.2h9.1V104.3z"/>
		</g>
		<g>
			<path d="M97.2,97.7h3.8l-0.1,4.8h0c0.8-3,2.5-5.1,6-5.1c3.6,0,5.7,2.4,5.7,6.6c0,1.1-0.1,2.4-0.2,3.1h-3.5
				c0.1-0.6,0.1-1.5,0.1-2.3c0-2.8-1.1-4.2-3.3-4.2c-2.9,0-4.7,2.5-4.7,6.5v7.4h-3.8V97.7z"/>
		</g>
		<g>
			<path d="M115.4,109.7c0-2.6,1.8-4.6,6.3-4.6h6.2V104c0-2.5-1.5-3.6-4.4-3.6c-2.6,0-4.1,1-4.1,2.9c0,0.1,0,0.4,0,0.6H116
				c0-0.2-0.1-0.7-0.1-1c0-3.4,2.9-5.4,7.7-5.4c5.1,0,8.1,2.4,8.1,6.8v10.3h-3.8c0.1-0.8,0.2-2.4,0.2-3.7h0c-0.5,2.5-2.6,4-6.3,4
				C117.9,114.8,115.4,113,115.4,109.7z M127.9,107.8v-0.3H122c-2.2,0-3.1,0.7-3.1,2.1c0,1.5,1.4,2.4,3.7,2.4
				C125.9,112,127.9,110.4,127.9,107.8z"/>
		</g>
		<g>
			<path d="M142.7,106.2c0-5.4,3.4-8.7,8.8-8.7c5.4,0,8.8,3.3,8.8,8.7c0,5.3-3.4,8.7-8.8,8.7C146.2,114.8,142.7,111.5,142.7,106.2z
				 M156.5,106.2c0-3.4-1.9-5.6-5-5.6s-5,2.1-5,5.6c0,3.4,1.9,5.5,5,5.5S156.5,109.6,156.5,106.2z"/>
		</g>
	</g>
	<g class="st2">
		<g>
			<path d="M44.7,145.5L44.7,145.5c0,1.2,0,2.7,0.1,3.6H41v-23.6h3.8v7.6c0,0.7,0,2.1-0.1,2.9h0c0.7-2.5,3-4,6.4-4
				c4.8,0,7.7,3.2,7.7,8.4c0,5.6-3,9-7.7,9C47.7,149.3,45.3,147.8,44.7,145.5z M55,140.4c0-3.3-1.8-5.3-4.8-5.3
				c-3.3,0-5.5,2.1-5.5,5.5v0.9c0,2.9,2.1,4.7,5.4,4.7C53.1,146.2,55,144,55,140.4z"/>
		</g>
		<g>
			<path d="M61.6,140.6c0-5.4,3.4-8.7,8.8-8.7c5.4,0,8.8,3.3,8.8,8.7c0,5.3-3.4,8.7-8.8,8.7C65.1,149.3,61.6,146,61.6,140.6z
				 M75.4,140.6c0-3.4-1.9-5.6-5-5.6c-3.1,0-5,2.1-5,5.6c0,3.4,1.9,5.5,5,5.5C73.5,146.2,75.4,144.1,75.4,140.6z"/>
		</g>
		<g>
			<path d="M82.6,125.4h3.8V149h-3.8V125.4z"/>
		</g>
		<g>
			<path d="M106.3,141.4H93.7c0.2,3.2,2,5,4.9,5c2.5,0,4.1-1.1,4.3-3.1h3.4c-0.1,3.7-3.2,6-7.8,6c-5.3,0-8.7-3.3-8.7-8.6
				c0-5.5,3.3-8.8,8.7-8.8c4.8,0,7.8,2.8,7.8,8.1V141.4z M102.9,138.8c0-2.5-1.6-3.9-4.3-3.9c-2.6,0-4.3,1.4-4.7,4.2h9.1V138.8z"/>
		</g>
	</g>
	<g class="st2">
		<g>
			<path d="M110.7,143v-7.7h-2.7v-3.1h2.1c0.6,0,0.9-0.3,1-1.3l0.2-2.5h3.2v3.8h5.8v3.1h-5.8v7.5c0,2.2,0.8,3.3,3.1,3.3
				c1,0,2-0.2,2.5-0.3v3c-0.5,0.2-1.7,0.4-3.1,0.4C112.5,149.2,110.7,146.7,110.7,143z"/>
		</g>
	</g>
	<g class="st2">
		<g>
			<path d="M122.2,140.6c0-5.4,3.4-8.7,8.8-8.7c5.4,0,8.8,3.3,8.8,8.7c0,5.3-3.4,8.7-8.8,8.7C125.6,149.3,122.2,146,122.2,140.6z
				 M136,140.6c0-3.4-1.9-5.6-5-5.6c-3.1,0-5,2.1-5,5.6c0,3.4,1.9,5.5,5,5.5C134.1,146.2,136,144.1,136,140.6z"/>
		</g>
	</g>
	<g class="st2">
		<g>
			<path d="M40.4,178.7c0-2.6,1.8-4.6,6.3-4.6h6.2v-1.2c0-2.5-1.5-3.6-4.4-3.6c-2.6,0-4.1,1-4.1,2.9c0,0.1,0,0.4,0,0.6H41
				c0-0.2-0.1-0.7-0.1-1c0-3.4,2.9-5.4,7.7-5.4c5.1,0,8.1,2.4,8.1,6.8v10.3h-3.8c0.1-0.8,0.2-2.4,0.2-3.7h0c-0.5,2.5-2.6,4-6.3,4
				C42.9,183.8,40.4,181.9,40.4,178.7z M52.9,176.7v-0.3H47c-2.2,0-3.1,0.7-3.1,2.1c0,1.5,1.4,2.4,3.7,2.4
				C50.9,180.9,52.9,179.3,52.9,176.7z"/>
		</g>
		<g>
			<path d="M60.5,166.7h3.8v16.8h-3.8V166.7z M63.2,160.2h4l-3.6,4.8h-3L63.2,160.2z"/>
		</g>
		<g>
			<path d="M76.3,159.9h3.8v15.6h0l9.1-8.8h4.9l-7.9,7.3l8.3,9.5h-5.2l-5.9-7.1l-3.4,3.1v4h-3.8V159.9z"/>
		</g>
		<g>
			<path d="M97.2,159.9h3.8v15.6h0l9.1-8.8h4.9l-7.9,7.3l8.3,9.5h-5.2l-5.9-7.1l-3.4,3.1v4h-3.8V159.9z"/>
		</g>
		<g>
			<path d="M118.2,159.9h3.8v15.6h0l9.1-8.8h4.9l-7.9,7.3l8.3,9.5h-5.2l-5.9-7.1l-3.4,3.1v4h-3.8V159.9z"/>
		</g>
	</g>
</g>
</svg>
